<?xml version="1.0" standalone="no"?>
<!DOCTYPE svg PUBLIC "-//W3C//DTD SVG 20010904//EN"
 "http://www.w3.org/TR/2001/REC-SVG-20010904/DTD/svg10.dtd">
<svg version="1.0" xmlns="http://www.w3.org/2000/svg"
 width="1067.000000pt" height="1067.000000pt" viewBox="0 0 1067.000000 1067.000000"
 preserveAspectRatio="xMidYMid meet">
<metadata>
Created by potrace 1.11, written by Peter Selinger 2001-2013
</metadata>
<g transform="translate(0.000000,1067.000000) scale(0.100000,-0.100000)"
fill="#000000" stroke="none">
<path d="M4965 9943 c-22 -1 -98 -8 -170 -13 -1034 -84 -2069 -461 -2872
-1044 -265 -193 -345 -260 -591 -501 -684 -669 -1136 -1517 -1276 -2395 -41
-258 -50 -373 -50 -655 0 -365 32 -637 114 -970 349 -1417 1456 -2614 2985
-3227 498 -200 1025 -328 1625 -394 197 -21 783 -30 1005 -15 1039 72 1989
382 2810 919 1108 723 1855 1807 2059 2987 43 250 57 428 57 700 0 364 -36
666 -121 1000 -320 1255 -1235 2341 -2520 2990 -701 354 -1444 555 -2265 615
-126 9 -690 11 -790 3z m690 -213 c1044 -62 2001 -373 2813 -915 l125 -84 -44
-11 c-216 -57 -507 -155 -701 -236 -1292 -543 -2144 -1507 -2469 -2794 -21
-85 -39 -164 -40 -175 0 -11 -20 57 -44 151 -257 1018 -812 1813 -1663 2384
-404 270 -905 499 -1406 641 -77 21 -141 41 -143 42 -5 6 266 181 406 262 919
532 2069 799 3166 735z m-3685 -1195 c541 -131 1066 -355 1502 -641 257 -168
454 -330 668 -550 465 -478 776 -1051 944 -1734 85 -347 121 -625 142 -1092
l6 -138 102 0 102 0 12 243 c19 399 56 664 137 993 144 586 399 1095 766 1534
116 138 378 396 510 502 496 397 1121 702 1778 867 90 23 167 41 171 41 35 0
433 -376 604 -570 539 -612 885 -1343 995 -2105 159 -1094 -155 -2178 -895
-3089 -125 -153 -462 -493 -619 -622 -1222 -1008 -2882 -1435 -4525 -1163
-1670 276 -3070 1246 -3740 2591 -207 415 -331 833 -392 1318 -18 141 -18 689
0 830 63 498 189 916 407 1345 204 404 468 767 800 1100 148 149 391 365 410
365 6 0 57 -11 115 -25z"/>
<path d="M2669 5570 c-119 -64 -147 -234 -56 -337 40 -46 82 -63 151 -63 66 0
101 12 140 48 95 89 86 254 -17 336 -34 27 -48 31 -110 33 -56 3 -80 -1 -108
-17z"/>
<path d="M7730 5579 c-36 -14 -79 -58 -102 -103 -30 -60 -23 -168 16 -224 42
-60 99 -85 186 -80 59 3 74 8 106 34 122 98 105 304 -30 365 -45 20 -135 24
-176 8z"/>
</g>
</svg>
